<?xml version="1.0" encoding="UTF-8"?>
<svg xmlns="http://www.w3.org/2000/svg" viewBox="0 0 1080 1080">
  <defs>
    <style>
      .cls-1 {
        fill: none;
        stroke: #bdeed9;
        stroke-miterlimit: 10;
        stroke-width: 12px;
      }

      .cls-2 {
        fill: #0d2e25;
      }

      .cls-3 {
        fill: #edf6f3;
      }
    </style>
  </defs>
  <g id="BG">
    <rect class="cls-2" width="1080" height="1080"/>
  </g>
  <g id="Content">
    <line class="cls-1" x1="270" y1="155.3" x2="810" y2="155.3"/>
    <line class="cls-1" x1="270" y1="927.74" x2="810" y2="927.74"/>
    <path class="cls-3" d="M518.55,270.02c4.31,0-245.54,1.72-245.54,1.72l2.58,13.78,24.12,3.45c38.77,3.44,44.8,6.03,44.8,12.92v475.39c0,6.89-10.34,12.06-37.91,15.5l-31.88,3.45-2.58,13.78h235.2c198.16,0,320.5-126.6,320.5-277.31,0-159.32-108.56-264.39-309.3-262.67ZM515.11,792.78l-58.59-14.64v-488.31h40.5c143.88,0,209.36,105.07,209.36,261.81,0,130.04-66.34,240.28-191.26,241.14Z"/>
  </g>
</svg>